<?xml version="1.0" encoding="utf-8"?>
<!-- Generator: Adobe Illustrator 17.0.0, SVG Export Plug-In . SVG Version: 6.00 Build 0)  -->
<!DOCTYPE svg PUBLIC "-//W3C//DTD SVG 1.1//EN" "http://www.w3.org/Graphics/SVG/1.1/DTD/svg11.dtd">
<svg version="1.1" id="Слой_1" xmlns="http://www.w3.org/2000/svg" xmlns:xlink="http://www.w3.org/1999/xlink" x="0px" y="0px"
	 width="652px" height="130px" viewBox="0 0 652 130" enable-background="new 0 0 652 130" xml:space="preserve">
<path fill="#1E1E1E" d="M18.751,30.338v14.316h-1.895v-5.879H9.415v5.879H7.521V30.338h1.895v6.748h7.441v-6.748H18.751z"/>
<path fill="#1E1E1E" d="M53.905,44.547V30.23H55.8v5.879h7.441V30.23h1.895v14.316h-1.895v-6.748H55.8v6.748H53.905z"/>
<path fill="#1E1E1E" d="M47.02,56.783h-1.768V45.982h1.768V56.783z"/>
<path fill="#1E1E1E" d="M50.479,39.547l1.895,0.479c-0.397,1.556-1.112,2.743-2.144,3.56s-2.293,1.226-3.784,1.226
	c-1.543,0-2.798-0.314-3.765-0.942s-1.703-1.538-2.207-2.729s-0.757-2.471-0.757-3.838c0-1.491,0.285-2.792,0.854-3.901
	s1.38-1.953,2.432-2.529s2.208-0.864,3.472-0.864c1.432,0,2.637,0.365,3.613,1.094s1.657,1.754,2.041,3.076l-1.865,0.439
	c-0.332-1.042-0.814-1.8-1.445-2.275s-1.426-0.713-2.383-0.713c-1.1,0-2.02,0.264-2.759,0.791s-1.258,1.235-1.558,2.124
	s-0.449,1.805-0.449,2.749c0,1.217,0.177,2.28,0.532,3.188s0.907,1.587,1.655,2.036s1.559,0.674,2.432,0.674
	c1.061,0,1.959-0.306,2.695-0.918S50.219,40.751,50.479,39.547z"/>
<path fill="#1E1E1E" d="M52.887,65.81c0,2.376-0.638,4.237-1.914,5.581s-2.923,2.017-4.941,2.017c-1.322,0-2.513-0.316-3.574-0.947
	s-1.87-1.512-2.427-2.642s-0.835-2.411-0.835-3.843c0-1.452,0.293-2.75,0.879-3.896s1.416-2.013,2.49-2.603s2.233-0.884,3.477-0.884
	c1.348,0,2.552,0.326,3.613,0.977s1.865,1.54,2.412,2.666S52.887,64.553,52.887,65.81z M50.934,65.78
	c0-1.725-0.464-3.084-1.392-4.077s-2.091-1.489-3.491-1.489c-1.426,0-2.599,0.501-3.521,1.504s-1.382,2.425-1.382,4.268
	c0,1.166,0.197,2.183,0.591,3.052s0.97,1.543,1.729,2.021s1.61,0.718,2.554,0.718c1.341,0,2.495-0.46,3.462-1.382
	S50.934,67.935,50.934,65.78z"/>
<path fill="#1E1E1E" d="M53.905,73.197V58.881H55.8v5.879h7.441v-5.879h1.895v14.316h-1.895v-6.748H55.8v6.748H53.905z"/>
<path fill="#8E0303" d="M95.479,39.527l1.895,0.479c-0.397,1.556-1.112,2.742-2.144,3.56s-2.293,1.226-3.784,1.226
	c-1.543,0-2.798-0.314-3.765-0.942s-1.703-1.538-2.207-2.729s-0.757-2.471-0.757-3.838c0-1.491,0.285-2.791,0.854-3.901
	s1.38-1.953,2.432-2.529s2.208-0.864,3.472-0.864c1.432,0,2.637,0.364,3.613,1.094s1.657,1.755,2.041,3.076l-1.865,0.439
	c-0.332-1.042-0.814-1.8-1.445-2.275s-1.426-0.713-2.383-0.713c-1.1,0-2.02,0.264-2.759,0.791s-1.258,1.235-1.558,2.124
	s-0.449,1.805-0.449,2.749c0,1.218,0.177,2.28,0.532,3.188s0.907,1.587,1.655,2.036s1.559,0.674,2.432,0.674
	c1.061,0,1.959-0.306,2.695-0.918S95.219,40.731,95.479,39.527z"/>
<path fill="#8E0303" d="M103.746,68.16V53.844h1.895v5.879h7.441v-5.879h1.895V68.16h-1.895v-6.748h-7.441v6.748H103.746z"/>
<path fill="#8E0303" d="M116.207,15.812c0,2.376-0.638,4.236-1.914,5.581s-2.923,2.017-4.941,2.017
	c-1.322,0-2.513-0.315-3.574-0.947s-1.87-1.512-2.427-2.642s-0.835-2.41-0.835-3.843c0-1.452,0.293-2.751,0.879-3.896
	s1.416-2.014,2.49-2.603s2.233-0.884,3.477-0.884c1.348,0,2.552,0.325,3.613,0.977s1.865,1.54,2.412,2.666
	S116.207,14.555,116.207,15.812z M114.254,15.782c0-1.726-0.464-3.084-1.392-4.077s-2.091-1.489-3.491-1.489
	c-1.426,0-2.599,0.501-3.521,1.504s-1.382,2.425-1.382,4.268c0,1.165,0.197,2.183,0.591,3.052s0.97,1.543,1.729,2.021
	s1.61,0.718,2.554,0.718c1.341,0,2.495-0.461,3.462-1.382S114.254,17.938,114.254,15.782z"/>
<path fill="#1E1E1E" d="M82.036,36.505v1.768H66.235v-1.768H82.036z"/>
<path fill="#1E1E1E" d="M36.786,36.505v1.768H20.985v-1.768H36.786z"/>
<path fill="#8E0303" d="M101.614,20.471L103,21.569l-6.704,8.468L94.91,28.94L101.614,20.471z"/>
<path fill="#8E0303" d="M105.659,23.71l1.386,1.097l-6.704,8.468l-1.386-1.097L105.659,23.71z"/>
<path fill="#8E0303" d="M94.91,45.622l1.386-1.097L103,52.994l-1.386,1.097L94.91,45.622z"/>
<g>
	<path fill="#1C1C1C" d="M32.821,88.985l-1.45-0.105c0.65-1.617,1.849-2.426,3.595-2.426c1.113,0,1.958,0.246,2.536,0.738
		s0.866,1.099,0.866,1.819c0,0.486-0.135,0.909-0.404,1.271c-0.27,0.359-0.621,0.641-1.055,0.844
		c-0.434,0.201-1.125,0.42-2.074,0.654c-1.131,0.27-1.887,0.533-2.268,0.791s-0.571,0.595-0.571,1.011
		c0,0.428,0.217,0.768,0.65,1.02s0.949,0.378,1.547,0.378c0.744,0,1.293-0.145,1.648-0.436c0.354-0.289,0.661-0.771,0.918-1.445
		l1.345,0.105c-0.563,2.004-1.904,3.006-4.025,3.006c-1.236,0-2.158-0.246-2.764-0.738s-0.91-1.093-0.91-1.802
		c0-0.504,0.144-0.967,0.431-1.389s0.645-0.741,1.072-0.958s1.14-0.439,2.136-0.668c1.295-0.293,2.077-0.58,2.347-0.861
		c0.264-0.281,0.396-0.56,0.396-0.835c0-0.328-0.155-0.615-0.466-0.861s-0.776-0.369-1.397-0.369c-0.586,0-1.015,0.093-1.288,0.276
		C33.361,88.19,33.09,88.517,32.821,88.985z"/>
	<path fill="#1C1C1C" d="M41.619,86.665h7.031l-1.986,9.334h-1.582l1.74-8.007h-3.92l-1.204,5.563c-0.205,0.955-0.48,1.621-0.826,2
		c-0.346,0.377-0.823,0.566-1.433,0.566c-0.352,0-0.817-0.041-1.397-0.123l0.29-1.318c0.246,0.018,0.469,0.026,0.668,0.026
		c0.404,0,0.669-0.101,0.795-0.304c0.126-0.201,0.306-0.818,0.541-1.85L41.619,86.665z"/>
	<path fill="#1C1C1C" d="M51.128,86.665h1.564l-0.861,4.061h1.819c0.223-1.166,0.757-2.169,1.604-3.01s1.868-1.262,3.063-1.262
		c1.078-0.029,1.925,0.283,2.54,0.936c0.615,0.654,0.938,1.587,0.967,2.8c-0.029,1.564-0.478,2.959-1.345,4.184
		s-2.036,1.837-3.507,1.837c-1.107,0-1.969-0.358-2.584-1.076s-0.923-1.552-0.923-2.501c0-0.176,0.006-0.39,0.018-0.642H51.55
		l-0.853,4.008h-1.6L51.128,86.665z M55.031,92.606c0,0.727,0.183,1.3,0.549,1.719s0.857,0.628,1.472,0.628
		c1.031,0,1.819-0.548,2.364-1.644s0.817-2.221,0.817-3.375c-0.006-0.732-0.196-1.286-0.571-1.661s-0.847-0.563-1.415-0.563
		c-0.938,0-1.708,0.501-2.312,1.503S55.031,91.347,55.031,92.606z"/>
	<path fill="#1C1C1C" d="M64.681,86.665h1.556l-0.888,3.99l0.281,0.009c0.439,0,0.797-0.112,1.072-0.339
		c0.275-0.225,0.668-0.757,1.178-1.595c0.527-0.861,0.974-1.421,1.34-1.679s0.86-0.387,1.481-0.387h0.738l-0.29,1.274h-0.378
		c-0.393,0-0.664,0.053-0.813,0.158s-0.371,0.41-0.664,0.914c-0.398,0.691-0.747,1.186-1.046,1.481s-0.683,0.528-1.151,0.698
		c0.393,0.152,0.708,0.372,0.945,0.659s0.467,0.724,0.69,1.31l1.09,2.839h-1.644L67.3,93.661c-0.328-0.867-0.633-1.424-0.914-1.67
		s-0.691-0.369-1.23-0.369l-0.949,4.377h-1.573L64.681,86.665z"/>
	<path fill="#1C1C1C" d="M71.458,92.457c0-1.822,0.536-3.331,1.608-4.526c0.885-0.984,2.045-1.477,3.48-1.477
		c1.125,0,2.032,0.352,2.72,1.055s1.033,1.652,1.033,2.848c0,1.072-0.217,2.07-0.65,2.992c-0.434,0.924-1.05,1.631-1.85,2.123
		s-1.642,0.738-2.527,0.738c-0.727,0-1.387-0.155-1.982-0.466s-1.049-0.75-1.362-1.318S71.458,93.201,71.458,92.457z M73.048,92.299
		c0,0.879,0.211,1.546,0.633,1.999c0.422,0.455,0.958,0.682,1.608,0.682c0.34,0,0.677-0.068,1.011-0.207
		c0.334-0.137,0.645-0.347,0.932-0.628s0.532-0.603,0.734-0.962c0.202-0.361,0.365-0.749,0.488-1.165
		c0.182-0.58,0.272-1.137,0.272-1.67c0-0.844-0.212-1.499-0.637-1.964c-0.425-0.467-0.959-0.699-1.604-0.699
		c-0.498,0-0.952,0.119-1.362,0.355c-0.41,0.238-0.781,0.585-1.112,1.042s-0.574,0.989-0.729,1.595
		C73.126,91.284,73.048,91.824,73.048,92.299z"/>
	<path fill="#1C1C1C" d="M83.472,89.082l-1.468-0.167c0.381-0.932,0.854-1.574,1.419-1.93c0.565-0.354,1.282-0.531,2.149-0.531
		c0.932,0,1.664,0.215,2.197,0.646c0.533,0.43,0.8,1,0.8,1.709c0,0.551-0.141,1.025-0.422,1.424s-0.703,0.724-1.266,0.976
		c0.738,0.469,1.107,1.116,1.107,1.942c0,0.803-0.313,1.514-0.94,2.131c-0.627,0.619-1.544,0.928-2.751,0.928
		c-2.063,0-3.275-0.94-3.639-2.821l1.512-0.114c0.24,1.148,0.976,1.723,2.206,1.723c0.592,0,1.078-0.159,1.459-0.479
		s0.571-0.737,0.571-1.253c0-0.387-0.104-0.695-0.312-0.927s-0.47-0.377-0.787-0.436s-0.8-0.088-1.45-0.088l0.272-1.248
		c0.135,0.012,0.267,0.018,0.396,0.018c0.826,0,1.446-0.139,1.859-0.418c0.413-0.277,0.62-0.692,0.62-1.243
		c0-0.428-0.133-0.748-0.4-0.962s-0.669-0.321-1.208-0.321c-0.346,0-0.68,0.07-1.002,0.211S83.765,88.402,83.472,89.082z"/>
	<path fill="#1C1C1C" d="M95.443,94.839c-0.551,0.475-1.081,0.822-1.591,1.041c-0.51,0.221-1.055,0.33-1.635,0.33
		c-0.861,0-1.556-0.253-2.083-0.76s-0.791-1.156-0.791-1.947c0-0.521,0.119-0.982,0.356-1.385c0.237-0.4,0.552-0.723,0.945-0.967
		c0.393-0.242,0.873-0.417,1.441-0.522c0.357-0.07,1.036-0.126,2.035-0.167s1.715-0.146,2.149-0.316
		c0.123-0.434,0.185-0.794,0.185-1.081c0-0.369-0.135-0.659-0.404-0.87c-0.369-0.293-0.908-0.439-1.617-0.439
		c-0.668,0-1.214,0.148-1.639,0.443c-0.425,0.297-0.734,0.717-0.927,1.262l-1.608-0.141c0.328-0.926,0.848-1.635,1.56-2.127
		s1.61-0.738,2.694-0.738c1.154,0,2.068,0.275,2.742,0.826c0.516,0.41,0.773,0.943,0.773,1.6c0,0.498-0.073,1.075-0.22,1.731
		l-0.519,2.32c-0.164,0.738-0.246,1.339-0.246,1.802c0,0.293,0.064,0.715,0.193,1.266h-1.608
		C95.54,95.694,95.478,95.308,95.443,94.839z M96.032,91.271c-0.223,0.088-0.461,0.155-0.716,0.202s-0.681,0.097-1.279,0.149
		c-0.926,0.082-1.579,0.187-1.96,0.313s-0.668,0.326-0.861,0.602s-0.29,0.58-0.29,0.914c0,0.445,0.154,0.812,0.461,1.099
		s0.746,0.431,1.314,0.431c0.527,0,1.034-0.139,1.521-0.418c0.486-0.277,0.87-0.666,1.151-1.164S95.874,92.19,96.032,91.271z"/>
	<path fill="#1C1C1C" d="M346.713,88.985l-1.45-0.105c0.65-1.617,1.849-2.426,3.595-2.426c1.113,0,1.958,0.246,2.536,0.738
		c0.576,0.492,0.865,1.099,0.865,1.819c0,0.486-0.135,0.909-0.404,1.271c-0.27,0.359-0.621,0.641-1.055,0.844
		c-0.434,0.201-1.125,0.42-2.074,0.654c-1.131,0.27-1.887,0.533-2.268,0.791s-0.571,0.595-0.571,1.011
		c0,0.428,0.217,0.768,0.65,1.02s0.949,0.378,1.547,0.378c0.744,0,1.293-0.145,1.647-0.436c0.354-0.289,0.661-0.771,0.919-1.445
		l1.345,0.105c-0.563,2.004-1.904,3.006-4.025,3.006c-1.236,0-2.158-0.246-2.764-0.738c-0.607-0.492-0.91-1.093-0.91-1.802
		c0-0.504,0.144-0.967,0.431-1.389s0.645-0.741,1.072-0.958s1.14-0.439,2.136-0.668c1.295-0.293,2.077-0.58,2.347-0.861
		c0.264-0.281,0.396-0.56,0.396-0.835c0-0.328-0.155-0.615-0.466-0.861s-0.776-0.369-1.397-0.369c-0.586,0-1.016,0.093-1.287,0.276
		C347.253,88.19,346.982,88.517,346.713,88.985z"/>
	<path fill="#1C1C1C" d="M355.511,86.665h7.031l-1.986,9.334h-1.582l1.74-8.007h-3.92l-1.204,5.563c-0.205,0.955-0.48,1.621-0.826,2
		c-0.346,0.377-0.823,0.566-1.433,0.566c-0.352,0-0.817-0.041-1.397-0.123l0.29-1.318c0.246,0.018,0.469,0.026,0.668,0.026
		c0.404,0,0.669-0.101,0.796-0.304c0.125-0.201,0.306-0.818,0.54-1.85L355.511,86.665z"/>
	<path fill="#1C1C1C" d="M365.021,86.665h1.564l-0.861,4.061h1.819c0.223-1.166,0.757-2.169,1.604-3.01
		c0.846-0.841,1.867-1.262,3.063-1.262c1.078-0.029,1.925,0.283,2.54,0.936c0.615,0.654,0.938,1.587,0.967,2.8
		c-0.029,1.564-0.478,2.959-1.345,4.184s-2.036,1.837-3.507,1.837c-1.107,0-1.969-0.358-2.584-1.076s-0.923-1.552-0.923-2.501
		c0-0.176,0.006-0.39,0.018-0.642h-1.934l-0.853,4.008h-1.6L365.021,86.665z M368.923,92.606c0,0.727,0.183,1.3,0.549,1.719
		s0.857,0.628,1.473,0.628c1.031,0,1.819-0.548,2.364-1.644s0.817-2.221,0.817-3.375c-0.006-0.732-0.196-1.286-0.571-1.661
		s-0.847-0.563-1.415-0.563c-0.938,0-1.708,0.501-2.312,1.503S368.923,91.347,368.923,92.606z"/>
	<path fill="#1C1C1C" d="M378.573,86.665h1.556l-0.888,3.99l0.281,0.009c0.439,0,0.797-0.112,1.072-0.339
		c0.275-0.225,0.668-0.757,1.178-1.595c0.527-0.861,0.974-1.421,1.34-1.679s0.86-0.387,1.481-0.387h0.738l-0.29,1.274h-0.378
		c-0.393,0-0.663,0.053-0.813,0.158c-0.148,0.105-0.37,0.41-0.663,0.914c-0.398,0.691-0.747,1.186-1.046,1.481
		s-0.683,0.528-1.151,0.698c0.393,0.152,0.708,0.372,0.944,0.659c0.238,0.287,0.468,0.724,0.69,1.31l1.09,2.839h-1.644l-0.879-2.338
		c-0.328-0.867-0.633-1.424-0.914-1.67s-0.691-0.369-1.23-0.369l-0.949,4.377h-1.573L378.573,86.665z"/>
	<path fill="#1C1C1C" d="M385.35,92.457c0-1.822,0.536-3.331,1.608-4.526c0.885-0.984,2.045-1.477,3.48-1.477
		c1.125,0,2.031,0.352,2.72,1.055s1.033,1.652,1.033,2.848c0,1.072-0.217,2.07-0.65,2.992c-0.434,0.924-1.051,1.631-1.85,2.123
		c-0.801,0.492-1.643,0.738-2.527,0.738c-0.727,0-1.388-0.155-1.982-0.466s-1.049-0.75-1.361-1.318
		C385.506,93.857,385.35,93.201,385.35,92.457z M386.94,92.299c0,0.879,0.211,1.546,0.633,1.999
		c0.422,0.455,0.958,0.682,1.608,0.682c0.34,0,0.677-0.068,1.011-0.207c0.334-0.137,0.645-0.347,0.932-0.628
		s0.532-0.603,0.733-0.962c0.203-0.361,0.365-0.749,0.488-1.165c0.182-0.58,0.272-1.137,0.272-1.67c0-0.844-0.213-1.499-0.638-1.964
		c-0.425-0.467-0.959-0.699-1.604-0.699c-0.498,0-0.952,0.119-1.362,0.355c-0.41,0.238-0.781,0.585-1.112,1.042
		s-0.574,0.989-0.729,1.595C387.018,91.284,386.94,91.824,386.94,92.299z"/>
	<path fill="#1C1C1C" d="M397.03,86.665h1.573l-0.844,3.894h4.333l0.826-3.894h1.556l-1.969,9.334h-1.582l0.896-4.175h-4.315
		l-0.896,4.175h-1.573L397.03,86.665z"/>
	<path fill="#1C1C1C" d="M411.277,94.839c-0.551,0.475-1.081,0.822-1.591,1.041c-0.51,0.221-1.055,0.33-1.635,0.33
		c-0.861,0-1.556-0.253-2.083-0.76s-0.791-1.156-0.791-1.947c0-0.521,0.119-0.982,0.355-1.385c0.238-0.4,0.553-0.723,0.945-0.967
		c0.393-0.242,0.873-0.417,1.441-0.522c0.357-0.07,1.035-0.126,2.035-0.167c0.998-0.041,1.715-0.146,2.148-0.316
		c0.123-0.434,0.185-0.794,0.185-1.081c0-0.369-0.135-0.659-0.404-0.87c-0.369-0.293-0.908-0.439-1.617-0.439
		c-0.668,0-1.215,0.148-1.64,0.443c-0.425,0.297-0.733,0.717-0.927,1.262l-1.608-0.141c0.328-0.926,0.848-1.635,1.561-2.127
		c0.711-0.492,1.609-0.738,2.693-0.738c1.154,0,2.068,0.275,2.742,0.826c0.516,0.41,0.773,0.943,0.773,1.6
		c0,0.498-0.073,1.075-0.22,1.731l-0.519,2.32c-0.164,0.738-0.246,1.339-0.246,1.802c0,0.293,0.064,0.715,0.193,1.266h-1.608
		C411.374,95.694,411.313,95.308,411.277,94.839z M411.866,91.271c-0.223,0.088-0.462,0.155-0.716,0.202
		c-0.256,0.047-0.682,0.097-1.279,0.149c-0.926,0.082-1.579,0.187-1.96,0.313s-0.668,0.326-0.861,0.602s-0.29,0.58-0.29,0.914
		c0,0.445,0.154,0.812,0.461,1.099c0.309,0.287,0.746,0.431,1.314,0.431c0.527,0,1.034-0.139,1.521-0.418
		c0.486-0.277,0.87-0.666,1.151-1.164S411.708,92.19,411.866,91.271z"/>
	<path fill="#1C1C1C" d="M414.986,95.999l1.951-9.334h1.591l-0.325,1.538c0.592-0.662,1.12-1.119,1.587-1.371
		c0.465-0.252,0.971-0.378,1.516-0.378c0.58,0,1.064,0.154,1.455,0.461c0.389,0.309,0.646,0.737,0.769,1.288
		c0.475-0.586,0.974-1.024,1.499-1.313c0.523-0.291,1.076-0.436,1.656-0.436c0.779,0,1.363,0.185,1.754,0.554
		c0.389,0.369,0.584,0.888,0.584,1.556c0,0.287-0.067,0.762-0.202,1.424l-1.257,6.012h-1.591l1.283-6.17
		c0.111-0.504,0.167-0.864,0.167-1.081c0-0.305-0.097-0.545-0.29-0.721s-0.466-0.264-0.817-0.264c-0.475,0-0.958,0.144-1.45,0.431
		s-0.874,0.664-1.147,1.129c-0.271,0.467-0.511,1.183-0.716,2.149l-0.949,4.526h-1.591l1.318-6.302
		c0.094-0.428,0.141-0.732,0.141-0.914c0-0.305-0.096-0.551-0.285-0.738c-0.191-0.188-0.438-0.281-0.743-0.281
		c-0.451,0-0.925,0.144-1.419,0.431c-0.496,0.287-0.898,0.688-1.209,1.199c-0.311,0.514-0.565,1.244-0.765,2.193l-0.923,4.412
		H414.986z"/>
	<path fill="#1C1C1C" d="M352.781,116.438c-0.551,0.475-1.081,0.822-1.591,1.041c-0.51,0.221-1.055,0.33-1.635,0.33
		c-0.861,0-1.556-0.253-2.083-0.76s-0.791-1.156-0.791-1.947c0-0.521,0.119-0.982,0.355-1.385c0.238-0.4,0.553-0.723,0.945-0.967
		c0.393-0.242,0.873-0.417,1.441-0.522c0.357-0.07,1.035-0.126,2.035-0.167c0.998-0.041,1.715-0.146,2.148-0.316
		c0.123-0.434,0.185-0.794,0.185-1.081c0-0.369-0.135-0.659-0.404-0.87c-0.369-0.293-0.908-0.439-1.617-0.439
		c-0.668,0-1.215,0.148-1.64,0.443c-0.425,0.297-0.733,0.717-0.927,1.262l-1.608-0.141c0.328-0.926,0.848-1.635,1.561-2.127
		c0.711-0.492,1.609-0.738,2.693-0.738c1.154,0,2.068,0.275,2.742,0.826c0.516,0.41,0.773,0.943,0.773,1.6
		c0,0.498-0.073,1.075-0.22,1.731l-0.519,2.32c-0.164,0.738-0.246,1.339-0.246,1.802c0,0.293,0.064,0.715,0.193,1.266h-1.608
		C352.878,117.294,352.816,116.907,352.781,116.438z M353.37,112.87c-0.223,0.088-0.462,0.155-0.716,0.202
		c-0.256,0.047-0.682,0.097-1.279,0.149c-0.926,0.082-1.579,0.187-1.96,0.313s-0.668,0.326-0.861,0.602s-0.29,0.58-0.29,0.914
		c0,0.445,0.154,0.812,0.461,1.099c0.309,0.287,0.746,0.431,1.314,0.431c0.527,0,1.034-0.139,1.521-0.418
		c0.486-0.277,0.87-0.666,1.151-1.164S353.212,113.79,353.37,112.87z"/>
	<path fill="#1C1C1C" d="M358.459,108.265h2.364l0.879,7.444l4.333-7.444h2.32l-1.995,9.334h-1.573l1.626-7.523l-4.377,7.523h-1.415
		l-0.923-7.813l-1.67,7.813h-1.573L358.459,108.265z"/>
	<path fill="#1C1C1C" d="M370.799,108.265h2.364l0.879,7.444l4.333-7.444h2.32l-1.995,9.334h-1.573l1.626-7.523l-4.377,7.523h-1.415
		l-0.923-7.813l-1.67,7.813h-1.573L370.799,108.265z"/>
	<path fill="#1C1C1C" d="M381.46,114.057c0-1.822,0.536-3.331,1.608-4.526c0.885-0.984,2.045-1.477,3.48-1.477
		c1.125,0,2.031,0.352,2.72,1.055s1.033,1.652,1.033,2.848c0,1.072-0.217,2.07-0.65,2.992c-0.434,0.924-1.051,1.631-1.85,2.123
		c-0.801,0.492-1.643,0.738-2.527,0.738c-0.727,0-1.388-0.155-1.982-0.466s-1.049-0.75-1.361-1.318
		C381.616,115.457,381.46,114.801,381.46,114.057z M383.051,113.898c0,0.879,0.211,1.546,0.633,1.999
		c0.422,0.455,0.958,0.682,1.608,0.682c0.34,0,0.677-0.068,1.011-0.207c0.334-0.137,0.645-0.347,0.932-0.628
		s0.532-0.603,0.733-0.962c0.203-0.361,0.365-0.749,0.488-1.165c0.182-0.58,0.272-1.137,0.272-1.67c0-0.844-0.213-1.499-0.638-1.964
		c-0.425-0.467-0.959-0.699-1.604-0.699c-0.498,0-0.952,0.119-1.362,0.355c-0.41,0.238-0.781,0.585-1.112,1.042
		s-0.574,0.989-0.729,1.595C383.128,112.884,383.051,113.424,383.051,113.898z"/>
	<path fill="#1C1C1C" d="M393.141,108.265h1.573l-0.844,3.894h4.333l0.826-3.894h1.556l-1.969,9.334h-1.582l0.896-4.175h-4.315
		l-0.896,4.175h-1.573L393.141,108.265z"/>
	<path fill="#1C1C1C" d="M407.467,115.911c-1.119,1.266-2.265,1.898-3.437,1.898c-0.721,0-1.303-0.207-1.744-0.619
		c-0.443-0.414-0.664-0.919-0.664-1.517c0-0.393,0.1-1.066,0.299-2.021l1.125-5.388h1.591l-1.248,5.968
		c-0.105,0.498-0.158,0.885-0.158,1.16c0,0.352,0.106,0.626,0.321,0.821c0.213,0.197,0.528,0.295,0.944,0.295
		c0.445,0,0.88-0.108,1.306-0.325c0.424-0.217,0.791-0.51,1.098-0.879c0.309-0.369,0.559-0.806,0.752-1.31
		c0.129-0.322,0.278-0.888,0.448-1.696l0.844-4.034h1.591l-1.951,9.334h-1.468L407.467,115.911z"/>
	<path fill="#1C1C1C" d="M420.272,108.265l-2.039,9.334h-1.564l0.826-3.885h-0.527c-0.662,0-1.099,0.021-1.31,0.062
		s-0.475,0.179-0.791,0.413s-0.606,0.536-0.87,0.905l-1.767,2.505h-1.934l1.775-2.373c0.609-0.82,1.251-1.368,1.925-1.644
		c-0.662-0.176-1.16-0.462-1.494-0.856c-0.334-0.396-0.501-0.904-0.501-1.525c0-0.533,0.154-1.041,0.461-1.525
		c0.309-0.482,0.727-0.839,1.258-1.067c0.529-0.229,1.352-0.343,2.465-0.343H420.272z M418.427,109.521h-2.197
		c-1.207,0-1.946,0.166-2.22,0.497c-0.271,0.331-0.408,0.692-0.408,1.085c0,0.34,0.085,0.626,0.255,0.856
		c0.17,0.232,0.369,0.374,0.598,0.427s0.621,0.079,1.178,0.079h2.145L418.427,109.521z"/>
</g>
<g>
	<g>
		<line fill="none" stroke="#1E1E1E" stroke-width="2" stroke-miterlimit="10" x1="269" y1="38" x2="308" y2="38"/>
		<g>
			<polygon fill="#1E1E1E" points="296.526,44.66 295.842,42.779 308.153,38.298 295.842,33.818 296.526,31.939 314,38.298 			"/>
		</g>
	</g>
</g>
<line fill="none" x1="252" y1="154" x2="280" y2="154"/>
<path fill="#1E1E1E" d="M32.624,46.773c-0.97-1.224-1.791-2.656-2.461-4.297s-1.006-3.34-1.006-5.098
	c0-1.549,0.25-3.034,0.752-4.453c0.586-1.647,1.491-3.288,2.715-4.922h1.26c-0.788,1.354-1.309,2.321-1.563,2.9
	c-0.397,0.898-0.709,1.836-0.938,2.812c-0.28,1.217-0.42,2.441-0.42,3.672c0,3.131,0.973,6.26,2.92,9.385H32.624z"/>
<path fill="#1E1E1E" d="M70.683,46.881h-1.26c1.946-3.125,2.92-6.253,2.92-9.385c0-1.224-0.14-2.438-0.42-3.643
	c-0.222-0.977-0.53-1.914-0.928-2.813c-0.254-0.586-0.778-1.563-1.572-2.93h1.26c1.224,1.634,2.129,3.275,2.715,4.922
	c0.501,1.419,0.752,2.904,0.752,4.453c0,1.758-0.337,3.457-1.011,5.098S71.646,45.657,70.683,46.881z"/>
<g>
	<path fill="#1E1E1E" d="M72.222,50.619l0.968-0.082c0.072,0.472,0.238,0.826,0.5,1.063c0.261,0.237,0.576,0.356,0.945,0.356
		c0.444,0,0.82-0.168,1.127-0.502c0.308-0.336,0.461-0.779,0.461-1.333c0-0.526-0.148-0.94-0.443-1.245
		c-0.295-0.304-0.682-0.456-1.161-0.456c-0.297,0-0.565,0.067-0.804,0.202c-0.239,0.135-0.427,0.311-0.564,0.525l-0.866-0.112
		l0.728-3.858h3.735v0.881h-2.998l-0.405,2.02c0.451-0.314,0.924-0.472,1.419-0.472c0.656,0,1.209,0.228,1.66,0.682
		c0.451,0.454,0.676,1.038,0.676,1.752c0,0.681-0.198,1.268-0.594,1.763c-0.482,0.608-1.139,0.912-1.973,0.912
		c-0.684,0-1.241-0.191-1.673-0.574C72.53,51.759,72.283,51.252,72.222,50.619z"/>
</g>
<path fill="#1E1E1E" d="M331.751,29.338v14.316h-1.895v-5.879h-7.441v5.879h-1.895V29.338h1.895v6.748h7.441v-6.748H331.751z"/>
<path fill="#1E1E1E" d="M366.905,43.547V29.23h1.895v5.879h7.441V29.23h1.895v14.316h-1.895v-6.748H368.8v6.748H366.905z"/>
<path fill="#1E1E1E" d="M360.02,55.783h-1.768V44.982h1.768V55.783z"/>
<path fill="#1E1E1E" d="M363.479,38.547l1.895,0.479c-0.397,1.556-1.112,2.743-2.144,3.56s-2.293,1.226-3.784,1.226
	c-1.543,0-2.798-0.314-3.765-0.942s-1.703-1.538-2.207-2.729s-0.757-2.471-0.757-3.838c0-1.491,0.285-2.792,0.854-3.901
	s1.38-1.953,2.432-2.529s2.208-0.864,3.472-0.864c1.432,0,2.637,0.365,3.613,1.094s1.657,1.754,2.041,3.076l-1.865,0.439
	c-0.332-1.042-0.814-1.8-1.445-2.275s-1.426-0.713-2.383-0.713c-1.1,0-2.02,0.264-2.759,0.791s-1.258,1.235-1.558,2.124
	s-0.449,1.805-0.449,2.749c0,1.217,0.177,2.28,0.532,3.188s0.907,1.587,1.655,2.036s1.559,0.674,2.432,0.674
	c1.061,0,1.959-0.306,2.695-0.918S363.219,39.751,363.479,38.547z"/>
<path fill="#1E1E1E" d="M365.887,64.81c0,2.376-0.638,4.237-1.914,5.581s-2.923,2.017-4.941,2.017c-1.322,0-2.513-0.316-3.574-0.947
	s-1.87-1.512-2.427-2.642s-0.835-2.411-0.835-3.843c0-1.452,0.293-2.75,0.879-3.896s1.416-2.013,2.49-2.603s2.233-0.884,3.477-0.884
	c1.348,0,2.552,0.326,3.613,0.977s1.865,1.54,2.412,2.666S365.887,63.553,365.887,64.81z M363.934,64.78
	c0-1.725-0.464-3.084-1.392-4.077s-2.091-1.489-3.491-1.489c-1.426,0-2.599,0.501-3.521,1.504s-1.382,2.425-1.382,4.268
	c0,1.166,0.197,2.183,0.591,3.052s0.97,1.543,1.729,2.021s1.61,0.718,2.554,0.718c1.341,0,2.495-0.46,3.462-1.382
	S363.934,66.935,363.934,64.78z"/>
<path fill="#1E1E1E" d="M366.905,72.197V57.881h1.895v5.879h7.441v-5.879h1.895v14.316h-1.895v-6.748H368.8v6.748H366.905z"/>
<path fill="#440000" d="M408.479,38.527l1.895,0.479c-0.397,1.556-1.112,2.742-2.144,3.56s-2.293,1.226-3.784,1.226
	c-1.543,0-2.798-0.314-3.765-0.942s-1.703-1.538-2.207-2.729s-0.757-2.471-0.757-3.838c0-1.491,0.285-2.791,0.854-3.901
	s1.38-1.953,2.432-2.529s2.208-0.864,3.472-0.864c1.432,0,2.637,0.364,3.613,1.094s1.657,1.755,2.041,3.076l-1.865,0.439
	c-0.332-1.042-0.814-1.8-1.445-2.275s-1.426-0.713-2.383-0.713c-1.1,0-2.02,0.264-2.759,0.791s-1.258,1.235-1.558,2.124
	s-0.449,1.805-0.449,2.749c0,1.218,0.177,2.28,0.532,3.188s0.907,1.587,1.655,2.036s1.559,0.674,2.432,0.674
	c1.061,0,1.959-0.306,2.695-0.918S408.219,39.731,408.479,38.527z"/>
<path fill="#440000" d="M445.414,65.039V50.723h1.895v5.879h7.441v-5.879h1.895v14.316h-1.895v-6.748h-7.441v6.748H445.414z"/>
<path fill="#440000" d="M429.207,14.812c0,2.376-0.638,4.236-1.914,5.581s-2.923,2.017-4.941,2.017
	c-1.322,0-2.513-0.315-3.574-0.947s-1.87-1.512-2.427-2.642s-0.835-2.41-0.835-3.843c0-1.452,0.293-2.751,0.879-3.896
	s1.416-2.014,2.49-2.603s2.233-0.884,3.477-0.884c1.348,0,2.552,0.325,3.613,0.977s1.865,1.54,2.412,2.666
	S429.207,13.555,429.207,14.812z M427.254,14.782c0-1.726-0.464-3.084-1.392-4.077s-2.091-1.489-3.491-1.489
	c-1.426,0-2.599,0.501-3.521,1.504s-1.382,2.425-1.382,4.268c0,1.165,0.197,2.183,0.591,3.052s0.97,1.543,1.729,2.021
	s1.61,0.718,2.554,0.718c1.341,0,2.495-0.461,3.462-1.382S427.254,16.938,427.254,14.782z"/>
<path fill="#1E1E1E" d="M395.036,35.505v1.768h-15.801v-1.768H395.036z"/>
<path fill="#1E1E1E" d="M349.786,35.505v1.768h-15.801v-1.768H349.786z"/>
<path fill="#440000" d="M414.614,19.471L416,20.569l-6.704,8.468l-1.386-1.097L414.614,19.471z"/>
<path fill="#440000" d="M418.659,22.71l1.386,1.097l-6.704,8.468l-1.386-1.097L418.659,22.71z"/>
<path fill="#440000" d="M407.91,44.622l1.386-1.097L416,51.994l-1.386,1.097L407.91,44.622z"/>
<path fill="#1E1E1E" d="M345.624,45.773c-0.97-1.224-1.791-2.656-2.461-4.297s-1.006-3.34-1.006-5.098
	c0-1.549,0.25-3.034,0.752-4.453c0.586-1.647,1.491-3.288,2.715-4.922h1.26c-0.788,1.354-1.309,2.321-1.563,2.9
	c-0.397,0.898-0.709,1.836-0.938,2.812c-0.28,1.217-0.42,2.441-0.42,3.672c0,3.131,0.973,6.26,2.92,9.385H345.624z"/>
<path fill="#1E1E1E" d="M383.683,45.881h-1.26c1.946-3.125,2.92-6.253,2.92-9.385c0-1.224-0.14-2.438-0.42-3.643
	c-0.222-0.977-0.53-1.914-0.928-2.813c-0.254-0.586-0.778-1.563-1.572-2.93h1.26c1.224,1.634,2.129,3.275,2.715,4.922
	c0.501,1.419,0.752,2.904,0.752,4.453c0,1.758-0.337,3.457-1.011,5.098S384.646,44.657,383.683,45.881z"/>
<g>
	<path fill="#1E1E1E" d="M385.222,49.619l0.968-0.082c0.072,0.472,0.238,0.826,0.5,1.063s0.576,0.356,0.945,0.356
		c0.444,0,0.82-0.168,1.127-0.502c0.309-0.336,0.462-0.779,0.462-1.333c0-0.526-0.147-0.94-0.443-1.245
		c-0.296-0.304-0.683-0.456-1.161-0.456c-0.297,0-0.564,0.067-0.804,0.202s-0.427,0.311-0.563,0.525l-0.866-0.112l0.728-3.858h3.735
		v0.881h-2.997l-0.405,2.02c0.451-0.314,0.924-0.472,1.419-0.472c0.656,0,1.209,0.228,1.66,0.682s0.677,1.038,0.677,1.752
		c0,0.681-0.198,1.268-0.595,1.763c-0.481,0.608-1.139,0.912-1.973,0.912c-0.684,0-1.24-0.191-1.673-0.574
		C385.529,50.759,385.283,50.252,385.222,49.619z"/>
</g>
<path fill="#440000" d="M429.207,57.81c0,2.376-0.638,4.236-1.914,5.581s-2.923,2.017-4.941,2.017c-1.322,0-2.513-0.315-3.574-0.947
	s-1.87-1.512-2.427-2.642s-0.835-2.41-0.835-3.843c0-1.452,0.293-2.751,0.879-3.896s1.416-2.014,2.49-2.603s2.233-0.884,3.477-0.884
	c1.348,0,2.552,0.325,3.613,0.977s1.865,1.54,2.412,2.666S429.207,56.553,429.207,57.81z M427.254,57.78
	c0-1.726-0.464-3.084-1.392-4.077s-2.091-1.489-3.491-1.489c-1.426,0-2.599,0.501-3.521,1.504s-1.382,2.425-1.382,4.268
	c0,1.165,0.197,2.183,0.591,3.052s0.97,1.543,1.729,2.021s1.61,0.718,2.554,0.718c1.341,0,2.495-0.461,3.462-1.382
	S427.254,59.936,427.254,57.78z"/>
<line fill="none" x1="253" y1="141" x2="281" y2="141"/>
<g>
	<path fill="#1E1E1E" d="M119.986,42.496V38.57h-3.896v-1.641h3.896v-3.896h1.66v3.896h3.896v1.641h-3.896v3.926H119.986z"/>
	<path fill="#1E1E1E" d="M142.281,43.121v1.689h-9.463c-0.013-0.423,0.055-0.83,0.205-1.221c0.241-0.645,0.626-1.279,1.157-1.904
		s1.297-1.348,2.3-2.168c1.556-1.276,2.607-2.287,3.154-3.032s0.82-1.45,0.82-2.114c0-0.697-0.249-1.284-0.747-1.763
		s-1.147-0.718-1.948-0.718c-0.846,0-1.523,0.254-2.031,0.762s-0.765,1.211-0.771,2.109l-1.807-0.186
		c0.124-1.348,0.589-2.375,1.396-3.081s1.891-1.06,3.252-1.06c1.374,0,2.461,0.381,3.262,1.143s1.201,1.706,1.201,2.832
		c0,0.573-0.117,1.136-0.352,1.689s-0.624,1.136-1.167,1.748s-1.447,1.452-2.71,2.52c-1.055,0.885-1.732,1.486-2.031,1.802
		s-0.547,0.633-0.742,0.952H142.281z"/>
	<path fill="#1E1E1E" d="M144.693,48.785V30.494h3.877v1.455h-2.119V47.33h2.119v1.455H144.693z"/>
	<path fill="#1E1E1E" d="M148.863,44.81l5.498-14.316h2.041l5.859,14.316h-2.158l-1.67-4.336h-5.986l-1.572,4.336H148.863z
		 M152.994,38.931h4.854l-1.494-3.965c-0.456-1.205-0.794-2.194-1.016-2.969c-0.182,0.918-0.439,1.83-0.771,2.734L152.994,38.931z"
		/>
	<path fill="#1E1E1E" d="M163.229,45.67l1.709,0.254c0.072,0.527,0.27,0.911,0.596,1.152c0.436,0.325,1.032,0.488,1.787,0.488
		c0.814,0,1.442-0.163,1.885-0.488c0.443-0.326,0.742-0.781,0.898-1.367c0.091-0.358,0.133-1.11,0.127-2.256
		c-0.768,0.905-1.725,1.357-2.871,1.357c-1.426,0-2.529-0.514-3.311-1.543s-1.172-2.262-1.172-3.701c0-0.99,0.179-1.903,0.537-2.739
		s0.877-1.483,1.558-1.938s1.479-0.684,2.397-0.684c1.224,0,2.233,0.495,3.027,1.484v-1.25h1.621v8.965
		c0,1.615-0.165,2.759-0.493,3.433s-0.85,1.206-1.563,1.597s-1.59,0.586-2.632,0.586c-1.237,0-2.236-0.278-2.998-0.835
		S163.203,46.789,163.229,45.67z M164.684,39.439c0,1.361,0.27,2.354,0.811,2.979s1.217,0.938,2.031,0.938
		c0.807,0,1.484-0.311,2.031-0.933s0.82-1.597,0.82-2.925c0-1.27-0.282-2.227-0.845-2.871s-1.242-0.967-2.036-0.967
		c-0.781,0-1.445,0.317-1.992,0.952S164.684,38.189,164.684,39.439z"/>
	<path fill="#1E1E1E" d="M178.033,49.02c-0.97-1.225-1.791-2.656-2.461-4.297c-0.67-1.641-1.006-3.34-1.006-5.098
		c0-1.549,0.25-3.034,0.752-4.453c0.586-1.647,1.491-3.288,2.715-4.922h1.26c-0.788,1.354-1.309,2.321-1.563,2.9
		c-0.397,0.898-0.709,1.836-0.938,2.813c-0.28,1.217-0.42,2.441-0.42,3.672c0,3.131,0.973,6.26,2.92,9.385H178.033z"/>
	<path fill="#1E1E1E" d="M181.539,44.81V30.494h1.943l7.52,11.24v-11.24h1.816V44.81h-1.943l-7.52-11.25v11.25H181.539z"/>
	<path fill="#1E1E1E" d="M196.061,44.81V30.494h1.895v5.879h7.441v-5.879h1.895V44.81h-1.895v-6.748h-7.441v6.748H196.061z"/>
	<path fill="#1E1E1E" d="M209.392,49.268l1.025-0.137c0.117,0.58,0.317,0.999,0.601,1.255c0.282,0.256,0.627,0.385,1.033,0.385
		c0.482,0,0.889-0.167,1.222-0.501c0.332-0.334,0.498-0.748,0.498-1.241c0-0.471-0.154-0.859-0.462-1.165
		c-0.307-0.305-0.698-0.458-1.173-0.458c-0.193,0-0.435,0.038-0.723,0.114l0.114-0.899c0.068,0.007,0.123,0.011,0.165,0.011
		c0.437,0,0.829-0.113,1.179-0.342c0.349-0.228,0.523-0.578,0.523-1.053c0-0.376-0.127-0.688-0.382-0.934
		c-0.254-0.247-0.582-0.37-0.984-0.37c-0.398,0-0.731,0.125-0.997,0.376s-0.437,0.626-0.512,1.127l-1.025-0.183
		c0.126-0.687,0.41-1.219,0.854-1.597c0.444-0.378,0.996-0.567,1.656-0.567c0.456,0,0.875,0.098,1.259,0.293
		c0.383,0.195,0.677,0.462,0.88,0.8c0.202,0.338,0.304,0.697,0.304,1.076c0,0.361-0.097,0.689-0.29,0.985s-0.48,0.531-0.859,0.706
		c0.493,0.113,0.877,0.35,1.149,0.709c0.273,0.358,0.41,0.808,0.41,1.346c0,0.729-0.266,1.347-0.797,1.854s-1.203,0.76-2.016,0.76
		c-0.732,0-1.341-0.218-1.824-0.654C209.736,50.527,209.46,49.962,209.392,49.268z"/>
	<path fill="#1E1E1E" d="M217.857,49.02h-1.26c1.946-3.125,2.92-6.254,2.92-9.385c0-1.224-0.14-2.438-0.42-3.643
		c-0.222-0.977-0.53-1.914-0.928-2.813c-0.254-0.586-0.778-1.563-1.572-2.93h1.26c1.224,1.634,2.129,3.275,2.715,4.922
		c0.501,1.419,0.752,2.904,0.752,4.453c0,1.758-0.337,3.457-1.011,5.098C219.64,46.363,218.821,47.795,217.857,49.02z"/>
	<path fill="#1E1E1E" d="M227.917,50.485v0.985h-5.518c-0.007-0.247,0.032-0.484,0.12-0.712c0.141-0.376,0.365-0.746,0.675-1.11
		c0.309-0.364,0.756-0.785,1.341-1.264c0.907-0.744,1.52-1.333,1.839-1.768c0.318-0.435,0.479-0.846,0.479-1.233
		c0-0.406-0.146-0.749-0.436-1.027c-0.291-0.279-0.669-0.418-1.137-0.418c-0.493,0-0.888,0.148-1.184,0.444
		c-0.296,0.296-0.446,0.706-0.45,1.23l-1.053-0.108c0.071-0.786,0.343-1.385,0.813-1.796c0.471-0.412,1.103-0.618,1.896-0.618
		c0.801,0,1.435,0.222,1.901,0.667c0.467,0.444,0.7,0.994,0.7,1.651c0,0.334-0.068,0.662-0.205,0.984
		c-0.137,0.323-0.363,0.663-0.68,1.02c-0.317,0.356-0.844,0.847-1.58,1.469c-0.615,0.517-1.01,0.866-1.185,1.051
		c-0.175,0.184-0.318,0.369-0.433,0.555H227.917z"/>
	<path fill="#1E1E1E" d="M232.79,48.785h-3.877V47.33h2.119V31.949h-2.119v-1.455h3.877V48.785z"/>
	<path fill="#1E1E1E" d="M235.056,37.837c0-2.376,0.638-4.237,1.914-5.581s2.923-2.017,4.941-2.017c1.321,0,2.513,0.316,3.574,0.947
		s1.87,1.512,2.427,2.642s0.835,2.411,0.835,3.843c0,1.452-0.293,2.75-0.879,3.896s-1.416,2.013-2.49,2.603
		s-2.233,0.884-3.477,0.884c-1.348,0-2.552-0.326-3.613-0.977s-1.865-1.54-2.412-2.666S235.056,39.094,235.056,37.837z
		 M237.009,37.867c0,1.725,0.464,3.084,1.392,4.077s2.092,1.489,3.491,1.489c1.426,0,2.6-0.501,3.521-1.504s1.382-2.425,1.382-4.268
		c0-1.166-0.197-2.183-0.591-3.052s-0.97-1.543-1.729-2.021s-1.609-0.718-2.554-0.718c-1.341,0-2.495,0.46-3.462,1.382
		S237.009,35.712,237.009,37.867z"/>
	<path fill="#1E1E1E" d="M251.247,44.81V30.494h1.895v5.879h7.441v-5.879h1.895V44.81h-1.895v-6.748h-7.441v6.748H251.247z"/>
</g>
<path fill="#1E1E1E" d="M467.01,42.667v-3.926h-3.896v-1.641h3.896v-3.896h1.66v3.896h3.896v1.641h-3.896v3.926H467.01z"/>
<path fill="#1E1E1E" d="M489.305,43.292v1.689h-9.463c-0.013-0.423,0.056-0.83,0.205-1.221c0.241-0.645,0.627-1.279,1.157-1.904
	s1.297-1.348,2.3-2.168c1.556-1.276,2.607-2.287,3.154-3.032s0.82-1.45,0.82-2.114c0-0.697-0.249-1.284-0.747-1.763
	s-1.147-0.718-1.948-0.718c-0.847,0-1.523,0.254-2.031,0.762s-0.765,1.211-0.771,2.109l-1.807-0.186
	c0.124-1.348,0.589-2.375,1.396-3.081s1.892-1.06,3.252-1.06c1.374,0,2.461,0.381,3.262,1.143s1.201,1.706,1.201,2.832
	c0,0.573-0.117,1.136-0.352,1.689s-0.623,1.136-1.167,1.748s-1.447,1.452-2.71,2.52c-1.055,0.885-1.731,1.486-2.031,1.802
	s-0.547,0.633-0.742,0.952H489.305z"/>
<path fill="#1E1E1E" d="M490.33,44.982l5.498-14.316h2.041l5.859,14.316h-2.158l-1.67-4.336h-5.986l-1.572,4.336H490.33z
	 M494.461,39.103h4.854l-1.494-3.965c-0.456-1.205-0.794-2.194-1.016-2.969c-0.183,0.918-0.439,1.83-0.771,2.734L494.461,39.103z"/>
<path fill="#1E1E1E" d="M504.695,45.842l1.709,0.254c0.071,0.527,0.271,0.911,0.596,1.152c0.437,0.325,1.032,0.488,1.787,0.488
	c0.813,0,1.442-0.163,1.885-0.488c0.442-0.326,0.742-0.781,0.898-1.367c0.091-0.358,0.134-1.11,0.127-2.256
	c-0.769,0.905-1.726,1.357-2.871,1.357c-1.426,0-2.529-0.514-3.311-1.543s-1.172-2.262-1.172-3.701c0-0.99,0.179-1.903,0.537-2.739
	s0.877-1.483,1.558-1.938s1.479-0.684,2.397-0.684c1.224,0,2.233,0.495,3.027,1.484v-1.25h1.621v8.965
	c0,1.615-0.164,2.759-0.493,3.433s-0.85,1.206-1.563,1.597s-1.59,0.586-2.632,0.586c-1.237,0-2.236-0.278-2.998-0.835
	S504.669,46.961,504.695,45.842z M506.15,39.611c0,1.361,0.271,2.354,0.811,2.979s1.218,0.938,2.031,0.938
	c0.808,0,1.484-0.311,2.031-0.933s0.82-1.597,0.82-2.925c0-1.27-0.281-2.227-0.845-2.871s-1.242-0.967-2.036-0.967
	c-0.781,0-1.445,0.317-1.992,0.952S506.15,38.361,506.15,39.611z"/>
<path fill="#1E1E1E" d="M525.389,42.667v-3.926h-3.896v-1.641h3.896v-3.896h1.66v3.896h3.896v1.641h-3.896v3.926H525.389z"/>
<path fill="#1E1E1E" d="M538.455,41.203l1.758-0.234c0.202,0.996,0.545,1.714,1.03,2.153s1.076,0.659,1.772,0.659
	c0.827,0,1.525-0.287,2.095-0.859s0.854-1.283,0.854-2.129c0-0.807-0.264-1.473-0.791-1.997s-1.198-0.786-2.012-0.786
	c-0.332,0-0.745,0.065-1.24,0.195l0.195-1.543c0.117,0.013,0.212,0.02,0.283,0.02c0.749,0,1.423-0.195,2.021-0.586
	s0.898-0.993,0.898-1.807c0-0.645-0.218-1.178-0.654-1.602s-0.999-0.635-1.689-0.635c-0.684,0-1.253,0.215-1.709,0.645
	s-0.749,1.074-0.879,1.934l-1.758-0.313c0.215-1.178,0.703-2.091,1.465-2.739s1.709-0.972,2.842-0.972
	c0.781,0,1.501,0.167,2.158,0.503s1.16,0.792,1.509,1.372s0.522,1.195,0.522,1.846c0,0.619-0.166,1.182-0.498,1.689
	s-0.823,0.912-1.475,1.211c0.847,0.195,1.504,0.601,1.973,1.216s0.703,1.385,0.703,2.31c0,1.25-0.456,2.31-1.367,3.179
	s-2.063,1.304-3.457,1.304c-1.257,0-2.3-0.375-3.13-1.124S538.572,42.394,538.455,41.203z"/>
<path fill="#1E1E1E" d="M550.262,44.982V30.666h1.943l7.52,11.24v-11.24h1.816v14.316h-1.943l-7.52-11.25v11.25H550.262z"/>
<path fill="#1E1E1E" d="M564.783,44.982V30.666h1.895v5.879h7.441v-5.879h1.895v14.316h-1.895v-6.748h-7.441v6.748H564.783z"/>
<path fill="#1E1E1E" d="M578.114,49.439l1.025-0.137c0.117,0.58,0.317,0.999,0.601,1.255c0.282,0.256,0.627,0.385,1.033,0.385
	c0.482,0,0.889-0.167,1.222-0.501c0.332-0.334,0.498-0.748,0.498-1.241c0-0.471-0.154-0.859-0.462-1.165
	c-0.307-0.305-0.698-0.458-1.173-0.458c-0.193,0-0.435,0.038-0.723,0.114l0.114-0.899c0.068,0.007,0.123,0.011,0.165,0.011
	c0.437,0,0.829-0.113,1.179-0.342c0.349-0.228,0.523-0.578,0.523-1.053c0-0.376-0.127-0.688-0.382-0.934
	c-0.254-0.247-0.582-0.37-0.984-0.37c-0.398,0-0.731,0.125-0.997,0.376s-0.437,0.626-0.512,1.127l-1.025-0.183
	c0.126-0.687,0.41-1.219,0.854-1.597c0.444-0.378,0.996-0.567,1.656-0.567c0.456,0,0.875,0.098,1.259,0.293
	c0.383,0.195,0.677,0.462,0.88,0.8c0.202,0.338,0.304,0.697,0.304,1.076c0,0.361-0.097,0.689-0.29,0.985s-0.48,0.531-0.859,0.706
	c0.493,0.113,0.877,0.35,1.149,0.709c0.273,0.358,0.41,0.808,0.41,1.346c0,0.729-0.266,1.347-0.797,1.854
	c-0.531,0.506-1.203,0.76-2.016,0.76c-0.732,0-1.341-0.219-1.824-0.655C578.459,50.699,578.183,50.134,578.114,49.439z"/>
<path fill="#1E1E1E" d="M594.676,42.667v-3.926h-3.896v-1.641h3.896v-3.896h1.66v3.896h3.896v1.641h-3.896v3.926H594.676z"/>
<path fill="#1E1E1E" d="M608.504,44.982V30.666h1.895v5.879h7.441v-5.879h1.895v14.316h-1.895v-6.748h-7.441v6.748H608.504z"/>
<path fill="#1E1E1E" d="M627.216,50.657v0.985h-5.518c-0.007-0.246,0.032-0.484,0.12-0.712c0.141-0.376,0.365-0.746,0.675-1.11
	c0.309-0.364,0.756-0.785,1.341-1.264c0.907-0.744,1.52-1.333,1.839-1.768c0.318-0.435,0.479-0.846,0.479-1.233
	c0-0.405-0.146-0.749-0.436-1.027c-0.291-0.279-0.669-0.418-1.137-0.418c-0.493,0-0.888,0.148-1.184,0.444
	c-0.296,0.296-0.446,0.706-0.45,1.23l-1.053-0.108c0.071-0.786,0.343-1.385,0.813-1.796c0.471-0.412,1.103-0.618,1.896-0.618
	c0.801,0,1.435,0.222,1.901,0.667c0.467,0.444,0.7,0.994,0.7,1.651c0,0.334-0.068,0.662-0.205,0.984
	c-0.137,0.323-0.363,0.663-0.68,1.02c-0.317,0.356-0.844,0.847-1.58,1.469c-0.615,0.517-1.01,0.866-1.185,1.051
	c-0.175,0.184-0.318,0.369-0.433,0.555H627.216z"/>
<path fill="#1E1E1E" d="M628.798,38.009c0-2.376,0.638-4.237,1.914-5.581s2.923-2.017,4.941-2.017c1.321,0,2.513,0.316,3.574,0.947
	s1.87,1.512,2.427,2.642s0.835,2.411,0.835,3.843c0,1.452-0.293,2.75-0.879,3.896s-1.416,2.013-2.49,2.603s-2.233,0.884-3.477,0.884
	c-1.348,0-2.552-0.326-3.613-0.977s-1.865-1.54-2.412-2.666S628.798,39.266,628.798,38.009z M630.751,38.039
	c0,1.725,0.464,3.084,1.392,4.077s2.092,1.489,3.491,1.489c1.426,0,2.6-0.501,3.521-1.504s1.382-2.425,1.382-4.268
	c0-1.166-0.197-2.183-0.591-3.052s-0.97-1.543-1.729-2.021s-1.609-0.718-2.554-0.718c-1.341,0-2.495,0.46-3.462,1.382
	S630.751,35.884,630.751,38.039z"/>
<path fill="#440000" d="M431.389,65.158V50.842h1.943l7.52,11.24v-11.24h1.816v14.316h-1.943l-7.52-11.25v11.25H431.389z"/>
<g>
	<path fill="#440000" d="M461.335,70.326v-1.998h-3.62v-0.939l3.809-5.409h0.837v5.409h1.127v0.939h-1.127v1.998H461.335z
		 M461.335,67.389v-3.764l-2.613,3.764H461.335z"/>
</g>
<g>
</g>
<g>
</g>
<g>
</g>
<g>
</g>
<g>
</g>
<g>
</g>
<g>
</g>
<g>
</g>
<g>
</g>
<g>
</g>
<g>
</g>
<g>
</g>
<g>
</g>
<g>
</g>
<g>
</g>
<g>
</g>
</svg>
